<svg xmlns="http://www.w3.org/2000/svg" viewBox="0 0 260 320" role="img" aria-label="Monstera leaf silhouette">
  <defs>
    <path id="leaf-shape" d="M130 25C111 5 77 11 51 42C18 82 15 138 34 185C50 226 80 251 103 274C116 287 124 303 130 315C136 303 144 287 157 274C180 251 210 226 226 185C245 138 242 82 209 42C183 11 149 5 130 25Z" />
    <linearGradient id="leaf-fill" x1="50" y1="38" x2="210" y2="292" gradientUnits="userSpaceOnUse">
      <stop offset="0" stop-color="#4b9a45" />
      <stop offset="0.32" stop-color="#2f733b" />
      <stop offset="0.70" stop-color="#17462a" />
      <stop offset="1" stop-color="#0b2d1e" />
    </linearGradient>
    <radialGradient id="leaf-highlight" cx="38%" cy="24%" r="68%">
      <stop offset="0" stop-color="#d5ed99" stop-opacity="0.55" />
      <stop offset="0.32" stop-color="#7fb85a" stop-opacity="0.22" />
      <stop offset="1" stop-color="#123a26" stop-opacity="0" />
    </radialGradient>
    <mask id="leaf-cutouts" maskUnits="userSpaceOnUse">
      <rect width="260" height="320" fill="black" />
      <use href="#leaf-shape" fill="white" />

      <ellipse cx="40" cy="78" rx="9" ry="46" transform="rotate(60 40 78)" fill="black" />
      <ellipse cx="28" cy="120" rx="11" ry="58" transform="rotate(78 28 120)" fill="black" />
      <ellipse cx="34" cy="164" rx="11" ry="62" transform="rotate(98 34 164)" fill="black" />
      <ellipse cx="54" cy="206" rx="10" ry="54" transform="rotate(117 54 206)" fill="black" />
      <ellipse cx="79" cy="242" rx="8" ry="41" transform="rotate(135 79 242)" fill="black" />

      <ellipse cx="220" cy="78" rx="9" ry="46" transform="rotate(-60 220 78)" fill="black" />
      <ellipse cx="232" cy="120" rx="11" ry="58" transform="rotate(-78 232 120)" fill="black" />
      <ellipse cx="226" cy="164" rx="11" ry="62" transform="rotate(-98 226 164)" fill="black" />
      <ellipse cx="206" cy="206" rx="10" ry="54" transform="rotate(-117 206 206)" fill="black" />
      <ellipse cx="181" cy="242" rx="8" ry="41" transform="rotate(-135 181 242)" fill="black" />

      <ellipse cx="91" cy="92" rx="7" ry="22" transform="rotate(48 91 92)" fill="black" />
      <ellipse cx="101" cy="135" rx="8" ry="28" transform="rotate(28 101 135)" fill="black" />
      <ellipse cx="109" cy="182" rx="8" ry="26" transform="rotate(14 109 182)" fill="black" />
      <ellipse cx="153" cy="92" rx="7" ry="22" transform="rotate(-48 153 92)" fill="black" />
      <ellipse cx="161" cy="137" rx="8" ry="28" transform="rotate(-28 161 137)" fill="black" />
      <ellipse cx="153" cy="185" rx="8" ry="26" transform="rotate(-12 153 185)" fill="black" />
      <ellipse cx="130" cy="222" rx="7" ry="22" fill="black" />
    </mask>
  </defs>
  <g mask="url(#leaf-cutouts)">
    <use href="#leaf-shape" fill="url(#leaf-fill)" />
    <use href="#leaf-shape" fill="url(#leaf-highlight)" />
    <path d="M130 31C128 93 128 196 130 309" fill="none" stroke="#d6e99a" stroke-width="4.2" stroke-linecap="round" opacity="0.58" />
    <path d="M130 61C112 75 91 86 65 91M130 84C105 108 77 126 42 132M130 112C100 143 72 164 45 186M130 146C110 176 93 207 82 243M130 62C148 75 170 87 196 92M130 86C155 109 183 127 218 133M130 113C160 144 188 164 215 186M130 148C150 178 167 209 178 244" fill="none" stroke="#d6e99a" stroke-width="2" stroke-linecap="round" opacity="0.35" />
    <path d="M63 54C93 29 132 27 166 44" fill="none" stroke="#ffffff" stroke-width="8" stroke-linecap="round" opacity="0.09" />
  </g>
</svg>
