<svg xmlns="http://www.w3.org/2000/svg" viewBox="0 0 320 320" role="img" aria-label="Monstera leaf silhouette">
  <defs>
    <path id="leaf-shape" d="M203 260C167 288 112 285 70 252C31 221 18 170 34 121C51 68 98 29 152 28C205 27 251 61 271 110C293 164 270 218 203 260Z" />
    <linearGradient id="leaf-fill" x1="56" y1="35" x2="246" y2="280" gradientUnits="userSpaceOnUse">
      <stop offset="0" stop-color="#5f9f49" />
      <stop offset="0.4" stop-color="#2e713b" />
      <stop offset="0.76" stop-color="#17462b" />
      <stop offset="1" stop-color="#0b2d1e" />
    </linearGradient>
    <radialGradient id="leaf-highlight" cx="35%" cy="24%" r="70%">
      <stop offset="0" stop-color="#d7ef9b" stop-opacity="0.5" />
      <stop offset="0.34" stop-color="#86ba5b" stop-opacity="0.2" />
      <stop offset="1" stop-color="#103a25" stop-opacity="0" />
    </radialGradient>
    <mask id="leaf-cutouts" maskUnits="userSpaceOnUse">
      <rect width="320" height="320" fill="black" />
      <use href="#leaf-shape" fill="white" />
      <path d="M39 90C66 93 88 88 112 77" stroke="black" stroke-width="14" stroke-linecap="round" fill="none" />
      <path d="M31 133C64 130 91 119 119 100" stroke="black" stroke-width="15" stroke-linecap="round" fill="none" />
      <path d="M49 181C79 169 105 150 132 124" stroke="black" stroke-width="15" stroke-linecap="round" fill="none" />
      <path d="M262 91C235 96 212 97 188 90" stroke="black" stroke-width="14" stroke-linecap="round" fill="none" />
      <path d="M278 133C245 132 217 121 189 104" stroke="black" stroke-width="15" stroke-linecap="round" fill="none" />
      <path d="M263 181C233 169 206 149 179 126" stroke="black" stroke-width="15" stroke-linecap="round" fill="none" />
      <ellipse cx="145" cy="116" rx="6" ry="16" transform="rotate(36 145 116)" fill="black" />
      <ellipse cx="164" cy="154" rx="7" ry="19" transform="rotate(28 164 154)" fill="black" />
      <ellipse cx="139" cy="190" rx="6" ry="17" transform="rotate(25 139 190)" fill="black" />
    </mask>
  </defs>
  <path d="M198 236C220 264 238 289 254 316" fill="none" stroke="#31512c" stroke-width="10" stroke-linecap="round" />
  <g mask="url(#leaf-cutouts)">
    <use href="#leaf-shape" fill="url(#leaf-fill)" />
    <use href="#leaf-shape" fill="url(#leaf-highlight)" />
    <path d="M76 55C121 92 160 158 199 237" fill="none" stroke="#d6ea93" stroke-width="4" stroke-linecap="round" opacity="0.55" />
    <path d="M100 76C86 96 67 112 48 126M124 101C100 130 77 151 55 175M148 131C129 158 109 187 90 220M137 91C165 94 190 95 218 86M158 117C186 132 212 145 244 144M178 145C203 163 225 184 247 207" fill="none" stroke="#d6ea93" stroke-width="1.7" stroke-linecap="round" opacity="0.3" />
    <path d="M75 57C111 34 158 31 202 48" fill="none" stroke="#ffffff" stroke-width="8" stroke-linecap="round" opacity="0.07" />
  </g>
</svg>
